<svg aria-hidden="true" style="position: absolute; width: 0; height: 0; overflow: hidden;" version="1.1" xmlns="http://www.w3.org/2000/svg" xmlns:xlink="http://www.w3.org/1999/xlink">
<defs>
<symbol id="icon-divider" viewBox="0 0 104 32">
<path d="M0 0h86.968c1.297 0 2.489 0.715 3.099 1.859l13.324 24.976c1.248 2.34-0.447 5.165-3.099 5.165h-96.78c-1.94 0-3.512-1.572-3.512-3.512v-28.488z"></path>
</symbol>
<symbol id="icon-burger" viewBox="0 0 32 32">
<path d="M4.4 9.333c0-0.515 0.418-0.933 0.933-0.933h21.333c0.515 0 0.933 0.418 0.933 0.933s-0.418 0.933-0.933 0.933h-21.333c-0.515 0-0.933-0.418-0.933-0.933z"></path>
<path d="M4.4 16c0-0.515 0.418-0.933 0.933-0.933h21.333c0.515 0 0.933 0.418 0.933 0.933s-0.418 0.933-0.933 0.933h-21.333c-0.515 0-0.933-0.418-0.933-0.933z"></path>
<path d="M4.4 22.666c0-0.515 0.418-0.933 0.933-0.933h21.333c0.515 0 0.933 0.418 0.933 0.933s-0.418 0.933-0.933 0.933h-21.333c-0.515 0-0.933-0.418-0.933-0.933z"></path>
</symbol>
<symbol id="icon-close" viewBox="0 0 32 32">
<path d="M8.74 8.74c0.364-0.364 0.955-0.364 1.32 0l13.199 13.199c0.364 0.364 0.364 0.955 0 1.32s-0.955 0.364-1.32 0l-13.199-13.199c-0.364-0.365-0.364-0.956 0-1.32z"></path>
<path d="M8.74 23.26c-0.364-0.364-0.364-0.955 0-1.32l13.199-13.199c0.364-0.364 0.955-0.364 1.32 0s0.364 0.955 0 1.32l-13.199 13.199c-0.364 0.364-0.955 0.364-1.32 0z"></path>
</symbol>
</defs>
</svg>
